<?xml version="1.0" encoding="UTF-8"?><svg id="logotipo" xmlns="http://www.w3.org/2000/svg" viewBox="0 0 84.34 14.87"><path d="m9.98,9.08h-4.03v2.8h-3.41V2.95h7.44c2.82,0,4.24.98,4.24,2.95v.19c0,1.99-1.41,2.99-4.24,2.99Zm-4.03-3.9v1.67h3.62c.75,0,1.13-.27,1.13-.82v-.04c0-.54-.38-.82-1.13-.82h-3.62Z"/><path d="m18.39,8.81v3.06h-3.41V2.95h8.11c2.5,0,3.76.76,3.76,2.29v.13c0,.3-.06.58-.18.83s-.28.45-.47.6c-.2.15-.39.27-.58.36-.19.09-.38.16-.57.2.57.13,1.02.37,1.34.74.33.36.49.83.49,1.39v1.32c0,.46.06.8.17,1.01v.06h-3.48c-.07-.08-.11-.24-.11-.47v-1.04c0-.53-.14-.92-.41-1.17-.28-.25-.74-.38-1.4-.38h-3.26Zm0-3.7v1.54h3.91c.69,0,1.03-.26,1.03-.77h0c0-.52-.34-.77-1.03-.77h-3.91Z"/><path d="m27.82,2.95h9.88v2.18h-6.52v1.12h6.38v2.17h-6.38v1.22h6.61v2.23h-9.97V2.95Z"/><path d="m38.77,11.87V2.95h4.68l2.74,5.02,2.78-5.02h4.49v8.93h-3.37v-5.57l-3.13,5.57h-1.74l-3.12-5.57v5.57h-3.32Z"/><path d="m58.01,2.95v8.93h-3.4V2.95h3.4Z"/><path d="m59.16,2.95h9.88v2.18h-6.52v1.12h6.38v2.17h-6.38v1.22h6.61v2.23h-9.97V2.95Z"/><path d="m73.53,8.81v3.06h-3.41V2.95h8.11c2.5,0,3.76.76,3.76,2.29v.13c0,.3-.06.58-.18.83s-.28.45-.47.6c-.2.15-.39.27-.58.36-.19.09-.38.16-.57.2.57.13,1.02.37,1.34.74.33.36.49.83.49,1.39v1.32c0,.46.06.8.17,1.01v.06h-3.48c-.07-.08-.11-.24-.11-.47v-1.04c0-.53-.14-.92-.41-1.17-.28-.25-.74-.38-1.4-.38h-3.26Zm0-3.7v1.54h3.91c.69,0,1.03-.26,1.03-.77h0c0-.52-.34-.77-1.03-.77h-3.91Z"/></svg>